<svg xmlns="http://www.w3.org/2000/svg" width="1200" height="420" viewBox="0 0 1200 420">
  <rect width="1200" height="420" rx="24" fill="#ffffff"/>
  <text x="60" y="60" font-family="Arial, sans-serif" font-size="34" font-weight="700" fill="#102a43">Chapter-oriented repository layout</text>
  <g font-family="Arial, sans-serif" font-size="18" font-weight="700" text-anchor="middle">
    <g fill="#e7f0ff" stroke="#205493" stroke-width="2">
      <rect x="60" y="100" width="190" height="70" rx="14"/><rect x="280" y="100" width="190" height="70" rx="14"/><rect x="500" y="100" width="190" height="70" rx="14"/><rect x="720" y="100" width="190" height="70" rx="14"/><rect x="940" y="100" width="190" height="70" rx="14"/>
      <rect x="60" y="230" width="190" height="70" rx="14"/><rect x="280" y="230" width="190" height="70" rx="14"/><rect x="500" y="230" width="190" height="70" rx="14"/><rect x="720" y="230" width="190" height="70" rx="14"/><rect x="940" y="230" width="190" height="70" rx="14"/>
    </g>
    <g fill="#102a43">
      <text x="155" y="142">Ch. 1</text><text x="375" y="142">Ch. 2</text><text x="595" y="142">Ch. 3</text><text x="815" y="142">Ch. 4</text><text x="1035" y="142">Ch. 5</text>
      <text x="155" y="272">Ch. 6</text><text x="375" y="272">Ch. 7</text><text x="595" y="272">Ch. 8</text><text x="815" y="272">Ch. 9</text><text x="1035" y="272">Ch. 10</text>
    </g>
  </g>
  <text x="60" y="370" font-family="Arial, sans-serif" font-size="22" fill="#486581">Each chapter folder contains the corresponding teaching script or source note used by the book.</text>
</svg>
